<svg xmlns="http://www.w3.org/2000/svg" xmlns:xlink="http://www.w3.org/1999/xlink" version="1.1" x="0px" y="0px" viewBox="0 0 100 125" enable-background="new 0 0 100 100" fill="white" stroke="#ffe9d5;" xml:space="preserve"><path d="M49.968,8.089l-0.553,0.897c0.052,0.03,3.351,2.023,6.811,2.023c1.855,0,3.754-0.572,5.225-2.324l-0.807-0.678  C57.011,12.334,50.038,8.132,49.968,8.089z"/><path d="M89.864,23.231c1.641-2.254,1.146-3.875,0.709-4.64c-0.551-0.954-1.609-1.578-2.525-1.489  c-0.58,0.06-1.016,0.394-1.189,0.922c-0.371,1.106-2.025,4.118-9.412,8.225c-5.047,2.804-8.617,6.375-10.209,8.139  c-0.066-3.141-0.354-4.48-0.637-5.064c0.381-0.668,1.262-2.324,1.832-4.269c8.975-1.681,9.438-6.28,9.426-7.296  c0.832-1.408,0.994-2.735,0.475-3.947c-0.477-1.124-1.482-1.976-2.555-2.604c0.113-1.696-0.324-3.083-1.316-4.114  C72.448,5,68.929,5.162,68.778,5.171l0.057,1.053c0.031-0.002,3.186-0.15,4.869,1.599c0.688,0.716,1.035,1.675,1.039,2.851  c-1.412-0.646-2.693-0.926-2.797-0.947l-0.221,1.029c0.047,0.011,4.588,1.003,5.639,3.468c0.398,0.933,0.24,1.953-0.486,3.122  l-0.094,0.153l0.016,0.176c0.018,0.19,0.307,4.522-8.086,6.254c0.148-0.705,0.242-1.429,0.242-2.143  c0-1.207-0.482-2.462-1.324-3.563c0.035-0.834,0.27-2.164,1.105-2.812c0.662-0.512,1.65-0.555,2.932-0.127l0.334-1  c-1.635-0.545-2.953-0.446-3.91,0.295c-0.865,0.669-1.242,1.73-1.402,2.621c-0.266-0.243-0.543-0.478-0.846-0.691  c-1.09-0.767-2.236-1.196-3.279-1.267c1.252-1.455,1.926-2.76,1.982-2.873l-0.943-0.471c-0.025,0.055-2.779,5.452-7.76,6.342  c-4.17,0.746-6.159-1.999-6.674-2.864c0.089-1.077-0.086-1.959-0.099-2.024l-1.032,0.213c0.004,0.016,0.189,0.962,0.051,2.01  L48.08,15.58c0.001,0,0.006,0.011,0.008,0.014c-0.085,0.624-0.172,1.283-0.596,1.804C46.936,18.076,46,18.42,45,18.42v1.054  c1,0,2.545-0.477,3.31-1.414c0.321-0.396,0.485-0.84,0.637-1.294c0.3,0.362,0.665,0.762,1.15,1.141  c0.041,0.406,0.37,2.301-0.574,3.527C49.033,22.073,48,22.396,47,22.396v1.053c2,0,2.648-0.463,3.347-1.376  c0.858-1.12,0.843-2.618,0.731-3.494c0.904,0.488,2.03,0.84,3.395,0.84c0.486,0,1.006-0.044,1.555-0.143  c2.244-0.4,4.053-1.59,5.42-2.869c1.01-0.344,2.457,0.022,3.791,0.962c0.457,0.322,2.665,1.944,2.665,4.417  c0,3.401-2.357,7.256-2.383,7.295l-0.379,0.612l0.531,0.134c0.131,0.285,0.523,1.516,0.523,5.967c0,5.849-9.645,10.837-9.74,10.886  l0.016,0.032c-0.482-0.293-1.01-0.578-1.547-0.868c-1.358-0.737-2.899-1.571-3.145-2.334c-0.404-1.27-0.287-2.22-0.163-3.228  c0.056-0.469,0.115-0.953,0.115-1.461c0-2.626-1.109-3.176-2.041-3.176c-0.322,0-0.796,0.164-1.21,0.953  c-0.848,1.611-1.115,5.158,0.587,7.632l0.867-0.597c-1.23-1.791-1.265-4.322-0.774-5.915c0.235-0.761,0.502-1.002,0.53-1.021  c0.244,0,0.987,0,0.987,2.123c0,0.443-0.052,0.875-0.109,1.333c-0.125,1.025-0.268,2.187,0.209,3.676  c0.373,1.167,1.964,2.027,3.645,2.938c1.473,0.797,3.139,1.699,3.264,2.541c0.256,1.703-0.654,2.285-0.688,2.306l-0.441,0.248  l0.236,0.451c0.041,0.076,3.916,7.514,3.916,12.248c0,5.076-1.365,13.67-6.477,13.67c-6.821,0-20.86-15.693-20.86-25.406  c0-8.476,4.681-10.377,8.707-10.446c0.573,1.724,1.521,3.547,3.094,4.97c0.942,0.854,1.791,1.521,2.542,2.108  c2.432,1.913,3.441,2.704,2.785,5.717c-0.11,0.51-0.242,1.072-0.384,1.672c-0.058,0.254-0.119,0.518-0.182,0.785  c-0.756-1.686-2.505-4.926-5.408-6.698l-0.549,0.899c3.217,1.963,5.137,6.608,5.542,7.67c-0.919,4.345-1.604,9.663,0.775,13.119  l0.869-0.596c-2.63-3.816-1.062-10.51-0.021-14.939c0.142-0.607,0.273-1.174,0.385-1.688c0.796-3.658-0.693-4.83-3.163-6.77  c-0.736-0.578-1.57-1.233-2.485-2.062c-3.143-2.843-3.555-7.651-3.605-9.158c0.271,0.043,0.56,0.06,0.88,0.06  c0.132,0,0.168-0.002,0.312-0.006c0.196-0.005,0.532-0.01,0.532-0.01v-1.054c0,0-0.353,0.006-0.557,0.011  c-1.766,0.041-2.188,0.053-4.108-4.423c-0.642-1.497-0.558-2.646-0.054-3.413C40.021,27.444,42,27.423,42,27.423v-1.053  c-1,0-2.496,0.661-2.496,0.661c-0.007,0.004-1.119,0.257-2.07-0.121c-1.054-0.42-2.025-1.543-2.745-3.248  c-1.45-3.426-0.169-4.981,0.51-5.521c0.138,1.057,0.445,2.154,0.961,3.293l0.955-0.434c-1.399-3.093-1.277-5.784,0.365-7.999  c0.675-0.909,1.479-1.499,2.081-1.902C39.411,11.646,39.322,12,39.322,13h1.053c0-4,3.537-4.981,4.865-5.16  c0.557,0.232,1.131,0.326,1.724,0.326c0.706,0,1.438-0.179,2.186-0.509c1.881-0.828,2.606-2.209,2.846-3.452  c1.2-0.884,6.263-3.939,9.567-0.092c0,0,0.245,0.834,0.599,1.369c1.148,1.732,3.506,2.683,7.002,2.826l0.043-1.052  c-3.135-0.129-5.205-0.918-6.162-2.348c-1.025-1.538-0.375-3.36-0.369-3.378l-0.986-0.368c-0.018,0.045-0.209,0.578-0.264,1.337  c-3.643-3.114-8.401-0.291-9.894,0.745l-0.487-0.012c-0.04,1.627-0.817,2.787-2.319,3.449c-1.074,0.473-2.086,0.526-3.019,0.161  l-0.405-0.119c-3.27,0.231-4.973,2.7-4.973,2.7c-0.13,0.06-3.51,1.61-4.738,4.846c-0.328,0.867-0.484,1.781-0.485,2.732  l-0.021-0.044c-0.036,0.018-3.65,1.791-1.397,7.117c0.363,0.856,0.776,1.573,1.233,2.164c-0.169,1.487,0.274,3.942,3.025,4.742  c0.104,0.448,0.258,0.921,0.473,1.425c1.179,2.746,1.951,4.015,2.798,4.595c-0.005,0.417,0.009,2.209,0.558,4.336  c-1.19,0.046-2.571,0.258-3.906,0.828c-0.486-6.138-5.324-10.592-10.02-14.905c-2.147-1.973-4.368-4.012-6.139-6.184  c-4.316-5.293-6.823-7.514-8.652-7.668c-0.645-0.051-1.237,0.148-1.756,0.602c-0.755,0.661-1.172,1.554-1.208,2.585  c-0.033,1.009,0.298,2.113,0.975,3.302c-0.75,0.356-1.803,1.04-2.205,2.182c-0.38,1.08-0.097,2.296,0.842,3.612  c0.427,0.596,0.865,1.159,1.309,1.707c-0.771,0.271-1.819,0.778-2.331,1.643c-0.32,0.544-0.385,1.167-0.185,1.803  c0.425,1.349,2.314,3.026,4.312,4.801c1.405,1.246,2.855,2.531,3.487,3.483c-1.158,1.264-4.897,5.68-2.749,7.827  c0.696,0.698,1.5,0.966,2.299,0.981c-0.441,1.623-1.021,4.566,0.301,5.357c0.213,0.129,0.452,0.193,0.718,0.193  c0.563,0,1.253-0.299,2.093-0.895c-0.034,1.062,0.126,2.541,1.164,3.236c0.362,0.246,0.788,0.369,1.274,0.369  c0.234,0,0.485-0.029,0.75-0.086c0.146,0.547,0.771,2.49,2.35,2.852c0.173,0.039,0.35,0.061,0.526,0.061  c0.653,0,1.346-0.273,2.083-0.814c0.166,0.889,0.655,2.498,2.073,3.248c0.49,0.258,1.039,0.389,1.643,0.389  c1.035,0,2.236-0.383,3.588-1.139c4.29,9.102,14.178,18.58,19.825,18.58c0.357,0,0.693-0.041,1.018-0.102  c-1.394,1.322-3.024,2.814-4.178,3.701c-1.138,0.873-1.561,2.578-1.712,3.854c-0.396,3.262,0.483,7.297,1.987,9.18  c0.21,0.281,1.789,2.336,3.391,2.336c0.346,0,0.691-0.094,1.023-0.324c0.688-0.475,0.699-1.195,0.422-2.037  c0.598-0.492,1.258-1.34,1.449-2.457c0.156,0.018,0.342,0.031,0.551,0.031c0.58,0,1.299-0.113,1.789-0.59  c0.316-0.309,0.652-0.893,0.455-1.916c-0.084-0.443-0.178-0.816-0.275-1.137c3.723-1.178,4.781-7.219,4.979-8.639  c1.072-0.545,5.416-2.762,9.994-5.377c5.59-3.195,4.336-10.77,3.246-13.168c-0.66-1.455-1.514-3.752-3.115-8.459  c0.928,0.477,1.768,0.721,2.512,0.721c1.037,0,1.896-0.463,2.568-1.387c0.863-1.188-0.33-3.405-1.254-4.793  c1.047,0.123,2.453,0.069,3.346-0.821c0.322-0.325,0.488-0.747,0.475-1.224c-0.035-1.075-0.994-2.283-1.691-3.025  c1.17-0.838,3.459-2.548,6.301-4.999c1.586-1.373,2.32-2.707,2.176-3.97c-0.111-0.966-0.713-1.635-1.172-2.014  c0.957-1.225,1.488-2.505,1.576-3.826c0.137-2.044-0.82-3.588-1.314-4.24C89.165,24.147,89.532,23.688,89.864,23.231z   M37.799,29.815c-1.308-0.555-1.715-1.637-1.818-2.499c0.317,0.241,0.649,0.434,0.999,0.572c0.453,0.181,0.872,0.247,1.236,0.259  C37.938,28.63,37.796,29.186,37.799,29.815z M29.675,60.525c-1.446-0.76-1.602-2.975-1.604-2.998l-0.18,0.01  c0.449-0.426,0.912-0.932,1.394-1.543l-0.826-0.654c-1.902,2.414-3.075,2.744-3.726,2.596c-0.938-0.215-1.451-1.596-1.584-2.154  c0.561-0.234,1.173-0.562,1.843-0.998l-0.571-0.885c-1.734,1.125-3.053,1.498-3.713,1.055c-0.857-0.574-0.731-2.533-0.606-3.277  c0.483-0.426,1.006-0.925,1.575-1.508l-0.753-0.737c-3.291,3.369-4.148,3.009-4.236,2.958c-0.546-0.328-0.288-2.612,0.291-4.587  c0.969-0.238,1.841-0.75,2.383-1.189l-0.665-0.818c-0.107,0.087-2.69,2.132-4.404,0.415c-1.4-1.399,1.803-5.364,3.035-6.644  l0.259-0.269l-0.168-0.333c-0.575-1.152-2.194-2.589-3.91-4.109c-1.721-1.527-3.67-3.258-4.008-4.33  c-0.112-0.357-0.085-0.657,0.087-0.948c0.397-0.674,1.468-1.105,2.146-1.303c0.748,0.883,1.492,1.706,2.187,2.473  c1.428,1.574,2.661,2.935,3.321,4.161l0.927-0.5c-0.721-1.338-1.994-2.742-3.468-4.369c-1.311-1.445-2.798-3.084-4.139-4.962  c-0.729-1.019-0.966-1.908-0.708-2.646c0.299-0.854,1.196-1.376,1.782-1.636c0.595,0.858,1.354,1.755,2.289,2.689  c2.031,2.032,3.543,3.319,4.762,4.354c1.499,1.274,2.581,2.195,3.703,3.727l0.851-0.624c-1.194-1.628-2.317-2.583-3.871-3.905  c-1.203-1.021-2.699-2.294-4.699-4.295c-2.981-2.981-3.563-4.969-3.524-6.11c0.024-0.742,0.311-1.356,0.849-1.827  c0.307-0.27,0.61-0.375,0.973-0.345c1.452,0.122,3.972,2.437,7.927,7.284c1.818,2.229,4.066,4.296,6.242,6.293  c4.867,4.473,9.46,8.709,9.703,14.653c-2.46,1.463-4.519,4.399-4.519,10.139c0,2.127,0.618,4.494,1.653,6.912  C32.131,60.783,30.681,61.057,29.675,60.525z M77.413,63.076c0.945,2.078,2.086,9.021-2.809,11.818  c-5.225,2.984-10.146,5.451-10.195,5.477l-0.258,0.127l-0.029,0.287c-0.008,0.07-0.803,7.002-4.322,8.061  c-0.049-0.117-0.1-0.232-0.145-0.338c-0.248-0.564-0.396-0.904-0.355-1.578l-1.051-0.064c-0.055,0.926,0.176,1.453,0.439,2.062  c0.221,0.504,0.494,1.129,0.705,2.232c0.088,0.453,0.037,0.775-0.154,0.963c-0.35,0.34-1.135,0.314-1.568,0.254  c-0.049-0.449-0.174-0.928-0.404-1.438c-1.191-2.641-0.926-3.604-0.666-4.533l0.033-0.129L55.618,86l-0.033,0.125  c-0.295,1.059-0.627,2.258,0.723,5.248c0.781,1.732,0.004,2.912-0.562,3.484c-0.146-0.301-0.309-0.609-0.475-0.922  c-0.707-1.342-1.511-2.867-1.551-4.311l-0.094-3.311l-1.054,0.029l0.096,3.312c0.047,1.686,0.948,3.396,1.673,4.771  c0.609,1.154,1.238,2.35,0.826,2.635c-0.895,0.615-2.485-1.119-2.983-1.789c-1.339-1.674-2.138-5.447-1.779-8.406  c0.184-1.521,0.649-2.641,1.312-3.148c2.456-1.895,6.864-6.293,7.054-6.48l0.07-0.088C66.843,64.6,71.915,64.174,71.964,64.172  l-0.02-0.527l0.016,0.527l-0.031-1.053c-0.078,0.002-0.793,0.045-2.045,0.662c-7.117-6.285-4.479-14.597-4.361-14.952l-1-0.333  c-0.031,0.093-2.91,9.087,4.385,15.826c-1.932,1.184-4.725,3.541-8.18,8.211c0.98-3.504,1.033-7.213,1.033-7.971  c0-4.416-3.027-10.74-3.842-12.357c0.441-0.447,1.057-1.392,0.809-3.052c-0.102-0.685-0.598-1.266-1.297-1.8  c1.588-0.879,6.504-3.825,8.719-7.742l-0.053,0.49c0.035,0.005,3.52,0.542,6.186,8.539C75.259,57.568,76.503,61.076,77.413,63.076z   M89.042,28.772c-0.119,1.771-1.207,3.492-3.236,5.118l0.658,0.822c0.508-0.408,0.957-0.825,1.361-1.248  c0.314,0.254,0.744,0.71,0.814,1.339c0.102,0.883-0.527,1.938-1.818,3.051c-4.084,3.531-7.014,5.496-7.041,5.515l0.162,0.244  l-0.127,0.145c0.773,0.683,2.006,2.089,2.035,2.954c0.004,0.187-0.047,0.323-0.166,0.444c-0.898,0.896-2.945,0.508-3.656,0.283  l-1.629-0.515l1.057,1.342c1.131,1.438,2.557,3.904,2.029,4.628c-0.615,0.85-1.779,1.725-4.746-0.238  c-0.436-1.287-0.918-2.726-1.459-4.349c-2.568-7.705-5.973-9.002-6.857-9.213c0.484-0.984,0.785-2.023,0.818-3.103  c0.65-0.787,4.631-5.442,10.715-8.824c7.436-4.128,9.393-7.292,9.898-8.811c0.021-0.059,0.062-0.183,0.299-0.207  c0.445-0.039,1.125,0.305,1.506,0.965c0.539,0.94,0.311,2.184-0.646,3.497c-1.396,1.921-3.428,3.9-5.221,5.648  c-2.166,2.109-4.037,3.932-4.682,5.433l0.969,0.415c0.562-1.308,2.449-3.146,4.447-5.094c1.156-1.126,2.408-2.347,3.539-3.598  C88.485,26.024,89.146,27.235,89.042,28.772z"/><path d="M61.616,31.777c1.02,0,1.85-0.831,1.85-1.852s-0.83-1.853-1.85-1.853c-1.023,0-1.854,0.832-1.854,1.853  S60.593,31.777,61.616,31.777z"/><path d="M58.019,42.098c0.659,0,1.194-0.537,1.194-1.195s-0.535-1.196-1.194-1.196c-0.658,0-1.194,0.537-1.194,1.196  S57.36,42.098,58.019,42.098z"/><path d="M45.376,15.177c-0.085-0.004-2.143-0.065-3.477,1.334c-0.832,0.871-1.189,2.086-1.062,3.615l1.049-0.087  c-0.101-1.212,0.158-2.152,0.77-2.796c1.002-1.055,2.657-1.015,2.682-1.015L45.376,15.177z"/><path d="M43.961,30.185c-0.814-1.295-2.979-1.609-3.223-1.641l-0.135,1.043c0.528,0.07,1.999,0.413,2.464,1.159  c0.165,0.261,0.187,0.628,0.068,0.982C42.696,33.045,42.564,34,42.531,35h1.056c0.034-1,0.155-1.763,0.548-2.936  C44.352,31.413,44.291,30.713,43.961,30.185z"/><path d="M53.099,31.777c1.021,0,1.85-0.831,1.85-1.852s-0.829-1.853-1.85-1.853c-1.021,0-1.854,0.832-1.854,1.853  S52.077,31.777,53.099,31.777z"/></svg>