<svg xmlns="http://www.w3.org/2000/svg" xmlns:xlink="http://www.w3.org/1999/xlink" version="1.1" x="0px" y="0px" viewBox="0 0 95 118.75" enable-background="new 0 0 95 95" fill="white" stroke="#ffe9d5;" xml:space="preserve"><g><path d="M92.7,25.5c0,0-15.4,3.5-24.3,5.2c-8.9,1.7-7.4,8.1-7,17.4c0.3,6.8-4,11.4-9.7,15.5c-1.8,1.3-1.8,3.6-1.8,3.6   c0,1.3,1.1,2.2,2.4,2.1l12.1-2.4c1.2-0.4,1.6-1.3,0.7-2.1c-0.8-0.8-1.4-1.6-1.2-1.7c0.2-0.2,1.5,0.1,2.4,1c0.9,0.9,2.5,1.2,3.6,0.7   c1.1-0.5,2.8-2.5,1.7-3.2l-1.8-1.1c-1.1-0.7-1.9-1.4-1.8-1.6c0.2-0.2,1.5-0.2,2.6,0.5l2.3,1.4c1.1,0.7,2.8,0.7,3.8,0   c1-0.7,2.4-3,1.1-3.4l-5.1-1.7c-1.2-0.4-2.2-0.9-2-1.2c0.1-0.2,1.4-0.5,2.7-0.1l5.7,1.9c1.2,0.4,3,0,3.9-0.9l1.9-2.1   c0.8-1,0.5-1.9-0.8-2.1l-9.2-1c-1.3-0.1-2.3-0.5-2.2-0.7c0.1-0.2,1.3-0.8,2.6-0.6l9.7,1.1c1.3,0.1,2.9-0.6,3.6-1.7l1.7-2.9   c0.6-1.2,0-2.1-1.3-2l-12.6,0.4c-1.3,0-2.3-0.1-2.3-0.4c0-0.3,1.2-1,2.5-1l13-0.4c1.3,0,2.7-1.1,3.2-2.3l1-3.6   c0.3-1.3-0.5-2.1-1.8-1.9l-15,2.7c-1.3,0.2-2.3,0.2-2.3,0c0-0.3,1.1-1.1,2.3-1.4l15.2-2.8c1.3-0.2,2.4-1.5,2.6-2.8   c0,0,0.1-1.3,0.1-3.2c0-0.5,0-0.5,0-0.5C95,25.4,93.9,25.2,92.7,25.5z"/><path d="M43.4,63.7c-5.7-4.1-10-8.7-9.7-15.5c0.4-9.3,1.8-15.7-7-17.4c-8.9-1.7-24.3-5.2-24.3-5.2c-1.3-0.3-2.3,0-2.3,0.5   c0,0,0,0,0,0.5c0,1.9,0.1,3.2,0.1,3.2c0.1,1.3,1.3,2.6,2.6,2.8l15.2,2.8c1.3,0.2,2.3,1.1,2.3,1.4c0,0.3-1,0.3-2.3,0L3,34.1   c-1.3-0.2-2.1,0.6-1.8,1.9l1,3.6c0.4,1.2,1.8,2.3,3.2,2.3l13,0.4c1.3,0,2.5,0.8,2.5,1s-1,0.4-2.3,0.4L6,43.3c-1.3,0-1.9,0.9-1.3,2   l1.7,2.9c0.7,1.1,2.3,1.9,3.6,1.7l9.7-1.1c1.3-0.1,2.6,0.4,2.6,0.6s-0.9,0.6-2.2,0.7l-9.2,1c-1.3,0.1-1.7,1.1-0.8,2.1l1.9,2.1   c0.9,0.9,2.7,1.3,3.9,0.9l5.7-1.9c1.2-0.4,2.5-0.1,2.7,0.1c0.1,0.2-0.8,0.8-2,1.2l-5.1,1.7c-1.2,0.4,0.2,2.7,1.1,3.4   c1,0.7,2.7,0.7,3.8,0l2.3-1.4c1.1-0.7,2.4-0.7,2.6-0.5c0.2,0.2-0.6,0.9-1.8,1.6l-1.8,1.1c-1.1,0.7,0.6,2.7,1.7,3.2   c1.1,0.5,2.7,0.2,3.6-0.7c0.9-0.9,2.2-1.2,2.4-1c0.2,0.2-0.3,0.9-1.2,1.7c-0.8,0.8-0.5,1.8,0.7,2.1l12.1,2.4   c1.3,0.2,2.4-0.8,2.4-2.1C45.2,67.3,45.2,65,43.4,63.7z"/></g></svg>